<svg version="1.1" id="Layer_1" xmlns="http://www.w3.org/2000/svg" xmlns:xlink="http://www.w3.org/1999/xlink" x="0px" y="0px"
	 width="100%" viewBox="0 0 2000 1247" enable-background="new 0 0 2000 1247" xml:space="preserve">
<path fill="#4C6971" opacity="1.000000" stroke="none" 
	d="
M1242.000000,1248.000000 
	C828.000122,1248.000000 414.500244,1248.000000 1.000277,1248.000000 
	C1.000185,832.333557 1.000185,416.667175 1.000093,1.000556 
	C667.666199,1.000371 1334.332397,1.000371 2000.999023,1.000185 
	C2000.999268,416.666107 2000.999268,832.332214 2000.999634,1247.999146 
	C1748.166626,1248.000000 1495.333374,1248.000000 1242.000000,1248.000000 
M742.107666,1238.268311 
	C746.741638,1232.663086 751.508423,1227.161621 755.984009,1221.432617 
	C768.523926,1205.380737 780.871155,1189.178345 793.427490,1173.139282 
	C813.117920,1147.987549 832.897888,1122.905518 852.676331,1097.822754 
	C872.583801,1072.576294 892.597656,1047.413452 912.444519,1022.119507 
	C923.781555,1007.670959 934.788147,992.963440 946.103333,978.497437 
	C965.392151,953.837280 984.759766,929.238281 1004.216431,904.710510 
	C1007.331360,900.783752 1010.410522,895.650452 1014.648743,893.988770 
	C1037.930908,884.859863 1061.552856,876.593689 1085.089111,868.117554 
	C1106.606445,860.368530 1128.186646,852.793152 1149.651001,844.901306 
	C1151.136108,844.355286 1152.677734,841.887512 1152.841431,840.183594 
	C1153.538086,832.928711 1153.682617,825.622437 1154.107788,818.339539 
	C1155.044922,802.293274 1155.943604,786.243958 1157.047852,770.208923 
	C1157.377319,765.425049 1155.685303,763.849915 1150.851074,763.910156 
	C1132.358765,764.140686 1113.860718,764.111816 1095.366943,763.944092 
	C1087.274780,763.870728 1079.588135,762.145874 1073.084839,756.737061 
	C1066.077271,750.908936 1062.641968,743.301331 1061.679321,734.548035 
	C1053.337402,733.375610 1051.261353,734.885010 1048.866943,742.404541 
	C1046.756958,749.030518 1043.099243,754.594543 1036.947266,758.450012 
	C1030.657471,762.391846 1023.790405,763.878052 1016.612976,763.943420 
	C998.619019,764.107300 980.622131,764.077209 962.627686,763.948608 
	C958.735840,763.920837 956.959656,764.901184 956.933533,769.229919 
	C956.740784,801.178772 956.301453,833.125977 956.020630,865.074402 
	C955.907837,877.903442 956.123901,890.736450 955.893494,903.562378 
	C955.845886,906.214172 955.051147,909.206787 953.632935,911.423035 
	C943.267822,927.620850 932.646362,943.654480 922.123718,959.751709 
	C905.968689,984.465149 889.830139,1009.189453 873.680847,1033.906738 
	C857.167358,1059.181396 840.691711,1084.480835 824.117615,1109.715698 
	C813.827820,1125.382324 803.292725,1140.888184 793.032837,1156.574097 
	C777.049377,1181.010742 761.223328,1205.550293 745.270081,1230.006836 
	C744.074646,1231.839355 742.396545,1233.357056 741.016174,1234.237427 
	C748.003479,1211.058716 754.992615,1187.880493 761.977783,1164.701172 
	C769.634338,1139.293701 777.247742,1113.873291 784.953491,1088.480835 
	C791.501282,1066.904053 798.237976,1045.384399 804.739746,1023.793884 
	C813.921021,993.305359 822.921936,962.762573 832.075684,932.265747 
	C841.514343,900.819824 851.047546,869.402405 860.532593,837.970520 
	C870.117615,806.207458 879.636841,774.424133 889.416870,742.721313 
	C890.006287,740.810730 892.388916,738.785461 894.379333,738.103027 
	C899.834412,736.232544 905.525513,735.050293 911.718750,733.440796 
	C910.113098,724.666199 908.702881,716.200745 906.928162,707.812378 
	C906.502441,705.800049 904.952148,702.501099 903.770691,702.434631 
	C898.405823,702.133301 892.983337,702.725769 887.599609,703.200134 
	C887.264771,703.229675 887.027039,704.988831 886.839417,705.961609 
	C885.206299,714.428345 883.334106,722.859558 882.038147,731.378174 
	C880.079529,744.252563 876.225403,756.224060 862.711060,760.787781 
	C855.365295,763.268311 847.121887,763.428467 839.240906,763.859619 
	C834.490845,764.119507 833.775635,766.016174 834.161011,770.081970 
	C834.595825,774.669800 835.260864,779.482605 834.375916,783.907593 
	C829.728210,807.147034 824.614624,830.293152 819.676025,853.474609 
	C812.597229,886.702148 805.524719,919.930969 798.459106,953.161377 
	C792.805237,979.752380 787.173645,1006.348206 781.517639,1032.938721 
	C774.449524,1066.168457 767.333801,1099.387939 760.300049,1132.625000 
	C754.399170,1160.508667 748.603271,1188.414673 742.722839,1216.302734 
	C741.269226,1223.196533 739.667664,1230.059082 738.134094,1236.936035 
	C737.868042,1236.895630 737.601990,1236.855225 737.335938,1236.814819 
	C723.857422,1101.433960 710.378967,966.053162 696.836792,830.033203 
	C693.281860,831.391968 690.881409,832.543884 688.354492,833.230286 
	C681.382874,835.123962 674.375183,838.161438 667.350647,838.248901 
	C659.180725,838.350769 659.166992,837.199890 659.996216,845.563293 
	C660.061646,846.223145 660.048340,846.896423 660.172974,847.544006 
	C667.475281,885.474365 674.757263,923.408813 682.110352,961.329346 
	C687.693909,990.124451 693.434692,1018.889099 698.987854,1047.690063 
	C706.113586,1084.645996 713.075745,1121.633423 720.196716,1158.590332 
	C724.744385,1182.192017 729.446533,1205.763794 734.092285,1229.346558 
	C734.990051,1233.903687 735.947632,1238.449219 736.877625,1243.000000 
	C737.323181,1243.072876 737.768799,1243.145752 738.214417,1243.218628 
	C739.334045,1241.709473 740.453674,1240.200439 742.107666,1238.268311 
M1207.862671,90.631538 
	C1198.577393,66.316093 1189.292236,42.000652 1180.006958,17.685209 
	C1181.508057,17.639189 1181.937866,18.078928 1182.265259,18.584877 
	C1188.209595,27.770081 1194.165649,36.947845 1200.071655,46.157715 
	C1215.826904,70.726524 1231.533203,95.326683 1247.309204,119.882195 
	C1260.576782,140.533127 1273.868286,161.168945 1287.232422,181.757477 
	C1307.014526,212.233612 1326.934082,242.620621 1346.652344,273.137817 
	C1352.049805,281.491302 1359.404053,289.239624 1357.003052,300.609039 
	C1356.560059,302.706573 1356.183105,304.842926 1356.054199,306.978149 
	C1354.694214,329.508301 1353.388062,352.041748 1352.075562,374.574738 
	C1351.936768,376.956848 1352.324463,378.722137 1355.393677,378.984467 
	C1370.100098,380.241302 1384.798584,381.601837 1399.488525,383.040741 
	C1411.364624,384.204041 1423.219116,385.589417 1435.093994,386.765961 
	C1443.512817,387.600037 1451.949707,388.254456 1460.379272,388.979950 
	C1463.396240,389.239624 1464.789185,388.124542 1465.110352,384.818054 
	C1465.750366,378.225586 1467.016235,371.696594 1467.889648,365.123627 
	C1471.906250,334.896606 1475.826050,304.656586 1479.916992,274.439728 
	C1480.551270,269.754303 1478.809814,267.307770 1474.411011,266.083221 
	C1440.074585,256.524750 1405.791138,246.773331 1371.402832,237.406296 
	C1363.837158,235.345490 1357.835815,232.432968 1352.881470,225.692093 
	C1342.493652,211.558411 1330.876343,198.331696 1319.851074,184.662354 
	C1311.527954,174.343201 1303.400269,163.866409 1295.077026,153.547241 
	C1284.052124,139.878372 1272.875977,126.331413 1261.851074,112.662506 
	C1253.528320,102.343765 1245.397339,91.870529 1237.081299,81.546288 
	C1220.655029,61.153255 1204.171265,40.806522 1187.684692,20.462055 
	C1183.554932,15.365802 1179.324829,10.350915 1174.597778,4.642963 
	C1171.539429,9.618009 1169.037231,13.655993 1166.566284,17.713104 
	C1145.680054,52.006756 1124.810059,86.310211 1103.912842,120.597076 
	C1094.240356,136.466858 1084.478394,152.282104 1074.828735,168.165543 
	C1062.509888,188.442322 1050.221802,208.738281 1038.036133,229.095108 
	C1036.438110,231.764542 1034.677734,232.088226 1031.846558,231.490265 
	C1010.918762,227.070007 989.958557,222.802887 969.007019,218.495071 
	C927.266235,209.912796 885.518066,201.365616 843.784729,192.747345 
	C801.414917,183.997620 759.054993,175.200287 716.698853,166.384521 
	C687.492554,160.305695 658.315796,154.083969 629.097107,148.065536 
	C599.712341,142.012878 570.292969,136.127899 540.886475,130.181137 
	C534.823853,128.955124 528.750854,127.780739 522.208557,126.488953 
	C522.208557,128.767731 522.032471,129.937332 522.235229,131.037094 
	C524.849915,145.221115 527.484802,159.401627 530.182068,173.570175 
	C533.776306,192.449890 537.418274,211.320587 541.060608,230.191116 
	C546.431946,258.019501 551.786865,285.851074 557.213013,313.668793 
	C563.082642,343.760590 569.143005,373.815948 574.818420,403.944061 
	C575.729065,408.778198 577.726807,410.130096 582.389587,410.084930 
	C603.053162,409.884796 623.720459,409.908112 644.384949,410.055481 
	C651.229675,410.104309 657.998779,411.047791 663.808289,415.240417 
	C666.070862,416.873291 667.955383,416.479858 670.623047,415.437622 
	C676.565369,413.116028 682.852600,410.407623 689.058289,410.254944 
	C713.042419,409.664734 737.052307,409.795105 761.047424,410.084839 
	C780.727783,410.322510 793.003601,424.975647 792.143555,441.663116 
	C791.441162,455.292664 791.954407,468.988007 792.077637,482.652832 
	C792.092468,484.296570 792.531555,486.734131 793.640076,487.436157 
	C799.293030,491.016052 809.330933,486.544342 810.998962,480.069214 
	C814.681519,465.774231 818.413635,451.492004 822.141663,437.208740 
	C827.330261,417.329224 837.944458,410.505890 853.683350,410.188324 
	C882.836426,409.600067 912.011719,409.824677 941.174194,410.093842 
	C957.324158,410.242859 968.138672,419.411865 972.218872,435.139679 
	C975.387085,447.351807 978.793396,459.502472 981.914856,471.726166 
	C982.720398,474.880524 984.083435,476.067230 987.473694,475.771667 
	C999.860474,474.691772 1012.261292,473.561798 1024.679810,473.159454 
	C1029.833862,472.992493 1031.185303,471.371338 1031.083130,466.469879 
	C1030.569458,441.852020 1030.280396,417.228821 1030.039185,392.606232 
	C1029.903809,378.775055 1029.972290,364.941132 1030.064697,351.109222 
	C1030.076538,349.344696 1030.530273,347.476044 1031.218262,345.840271 
	C1036.040894,334.374573 1041.038330,322.982452 1045.867554,311.519501 
	C1056.620728,285.994965 1067.234131,260.411316 1078.045776,234.911667 
	C1086.920044,213.981506 1096.087646,193.175735 1104.962891,172.245987 
	C1115.645020,147.054886 1126.127441,121.779137 1136.749268,96.562325 
	C1144.987793,77.003181 1153.302246,57.476032 1161.594360,37.939445 
	C1164.335693,31.481007 1167.112427,25.037613 1169.872803,18.587313 
	C1170.771606,19.660095 1170.917358,20.485260 1170.750366,21.241364 
	C1165.926514,43.085716 1161.088013,64.926895 1156.216919,86.760765 
	C1149.506104,116.840927 1142.671143,146.893692 1136.064575,176.996658 
	C1128.068481,213.431198 1120.351807,249.927094 1112.334595,286.356934 
	C1105.030273,319.547821 1097.399536,352.666840 1090.074829,385.853302 
	C1084.252319,412.233307 1078.679199,438.668335 1072.986328,465.076996 
	C1070.299438,477.541748 1067.651855,490.015625 1064.839966,502.452209 
	C1064.301880,504.831909 1064.402344,507.825165 1060.445312,508.004242 
	C1040.540039,508.905365 1020.646973,510.078308 1000.740845,510.956848 
	C992.964294,511.300079 992.306091,511.975586 994.293091,519.447937 
	C1004.867737,559.215698 1015.423889,598.988281 1025.956665,638.767090 
	C1031.002686,657.824158 1036.059448,676.879211 1040.924561,695.982727 
	C1041.837036,699.565247 1043.378174,700.577515 1046.896118,699.598938 
	C1053.931030,697.641907 1061.108032,696.168152 1068.069824,693.993774 
	C1070.015625,693.385986 1072.394043,691.298340 1072.914062,689.428101 
	C1078.953003,667.703796 1084.654785,645.885925 1090.484131,624.103027 
	C1096.229492,602.634338 1102.081055,581.193848 1107.768677,559.709961 
	C1112.607056,541.434265 1117.369873,523.137451 1121.991699,504.806000 
	C1124.987793,492.921997 1128.209717,481.053650 1130.325806,469.001923 
	C1132.069580,459.069733 1132.279175,448.872650 1133.271973,438.803131 
	C1134.799438,423.307587 1136.475830,407.826569 1137.973999,392.328278 
	C1139.139160,380.275726 1140.070923,368.200714 1141.211792,356.145660 
	C1142.413452,343.448608 1143.753906,330.764740 1145.008179,318.072571 
	C1146.149902,306.520508 1147.242676,294.963654 1148.383667,283.411499 
	C1149.572266,271.377960 1150.844971,259.352478 1151.982056,247.314133 
	C1152.808838,238.560593 1153.398193,229.784546 1154.230713,221.031601 
	C1155.423706,208.490280 1156.771973,195.963791 1157.997559,183.425476 
	C1159.126221,171.880310 1160.149414,160.324875 1161.275391,148.779449 
	C1162.482056,136.406464 1163.801758,124.044403 1164.984497,111.669197 
	C1166.119751,99.790573 1167.090942,87.896271 1168.227295,76.017761 
	C1169.774536,59.846252 1171.399414,43.682114 1173.013916,27.517136 
	C1173.507812,22.573208 1174.078125,17.636930 1174.613281,12.697140 
	C1176.036987,13.418289 1176.574951,14.084342 1176.779419,14.840559 
	C1183.221069,38.661240 1189.611084,62.495888 1196.049805,86.317345 
	C1202.503418,110.193604 1208.988525,134.061386 1215.481812,157.926926 
	C1226.361938,197.915161 1237.240234,237.903885 1248.155029,277.882660 
	C1257.904053,313.591125 1267.767090,349.268677 1277.418701,385.003357 
	C1279.206665,391.622894 1281.736450,398.063385 1280.205200,405.414642 
	C1278.854126,411.900665 1279.483643,418.410004 1284.926025,423.688477 
	C1286.935669,425.637604 1288.076904,428.816650 1288.854614,431.643707 
	C1292.417847,444.594055 1295.677612,457.627502 1299.121704,470.611115 
	C1300.302734,475.063324 1301.702271,479.457489 1303.002075,483.878174 
	C1304.003174,469.993225 1303.815674,456.340240 1304.073242,442.695618 
	C1304.228882,434.446136 1306.233765,426.802948 1312.094482,420.297516 
	C1319.056519,412.569641 1327.887207,410.107422 1337.623657,410.055542 
	C1365.788086,409.905457 1393.953613,410.005188 1422.118774,409.987732 
	C1424.006470,409.986572 1425.894165,409.826172 1427.781860,409.739868 
	C1427.842163,409.249756 1427.902344,408.759674 1427.962524,408.269592 
	C1426.396851,407.852478 1424.846436,407.146362 1423.263306,407.063416 
	C1409.168823,406.324677 1395.069946,405.664246 1380.969727,405.043335 
	C1364.704956,404.327087 1348.441040,403.532684 1332.168091,403.098511 
	C1328.335083,402.996246 1326.367065,401.547699 1325.170898,398.183228 
	C1323.173218,392.564880 1321.090942,386.975403 1318.967285,381.403168 
	C1307.627197,351.648499 1296.269043,321.900635 1284.905884,292.154846 
	C1273.601807,262.563995 1262.284302,232.978317 1250.972290,203.390564 
	C1236.694946,166.046738 1222.417114,128.703079 1207.862671,90.631538 
M1609.001099,583.500000 
	C1609.001099,633.907471 1609.001099,684.314941 1609.001099,734.657471 
	C1635.080200,734.657471 1660.329346,734.657471 1686.228760,734.657471 
	C1686.228760,655.618835 1686.228760,576.920410 1686.228760,497.933044 
	C1706.685547,497.933044 1726.490356,497.933044 1746.893311,497.933044 
	C1749.626831,478.345001 1752.331665,458.962006 1755.067261,439.358490 
	C1614.143433,439.358490 1473.767334,439.358490 1333.288086,439.358490 
	C1333.288086,458.967743 1333.288086,478.216919 1333.288086,498.124878 
	C1354.941528,498.124878 1376.315186,498.124878 1398.152832,498.124878 
	C1398.152832,577.363647 1398.152832,655.943115 1398.152832,734.573181 
	C1424.330933,734.573181 1450.030029,734.573181 1476.208984,734.573181 
	C1476.208984,655.569031 1476.208984,576.990662 1476.208984,497.999207 
	C1478.491821,497.999207 1480.294189,497.999207 1482.096680,497.999176 
	C1498.594971,497.998871 1515.093628,497.959015 1531.591431,498.037415 
	C1534.328857,498.050415 1536.555664,497.816803 1536.951904,494.502075 
	C1537.283691,491.727692 1537.625366,488.954224 1537.998169,486.185120 
	C1539.738525,473.262451 1541.491333,460.341400 1543.239746,447.419800 
	C1543.564819,447.437592 1543.890015,447.455414 1544.215088,447.473236 
	C1544.215088,464.207336 1544.215088,480.941437 1544.215088,498.146545 
	C1566.023804,498.146545 1587.277100,498.146545 1609.001099,498.146545 
	C1609.001099,526.585022 1609.001099,554.542480 1609.001099,583.500000 
M1102.514404,689.984131 
	C1098.588379,704.774658 1094.662231,719.565186 1090.627319,734.765747 
	C1117.382568,734.765747 1143.329468,734.765747 1169.774780,734.765747 
	C1173.606445,714.566956 1177.437622,694.369934 1181.300049,674.008911 
	C1202.631592,674.008911 1223.447998,673.949219 1244.261719,674.156372 
	C1245.517456,674.168884 1247.595215,676.135803 1247.868530,677.481934 
	C1251.385986,694.812927 1254.900513,712.153992 1257.797974,729.595154 
	C1258.568359,734.232422 1260.279175,735.110413 1264.457031,735.080078 
	C1287.452271,734.913086 1310.449463,735.000305 1333.445923,735.000305 
	C1335.208130,735.000305 1336.970337,735.000305 1339.315552,735.000305 
	C1313.217896,635.868835 1287.320190,537.496582 1261.389526,438.999481 
	C1232.297607,438.999481 1203.474854,439.183105 1174.658691,438.828552 
	C1169.531006,438.765472 1168.084717,441.000732 1167.051025,444.997406 
	C1162.211914,463.707123 1157.339478,482.408295 1152.442993,501.103119 
	C1145.265503,528.507751 1138.114136,555.919434 1130.844238,583.299622 
	C1125.086792,604.983459 1119.099121,626.606140 1113.345459,648.290955 
	C1109.732910,661.905762 1106.364014,675.585205 1102.514404,689.984131 
M786.516235,683.980835 
	C782.027588,700.829773 777.539001,717.678772 772.928345,734.985840 
	C798.882507,734.985840 824.199341,735.037537 849.513977,734.820740 
	C850.680481,734.810791 852.573792,732.540833 852.867920,731.071106 
	C856.372253,713.562744 859.844727,696.041321 862.803528,678.435547 
	C863.457092,674.546631 864.913513,673.932007 868.216064,673.955994 
	C882.881165,674.062134 897.547424,674.001648 912.213257,674.001404 
	C918.012329,674.001282 923.811462,674.001343 929.703003,674.001343 
	C933.594849,694.564941 937.393921,714.638062 941.170898,734.594604 
	C968.025452,734.594604 994.398682,734.594604 1021.543396,734.594604 
	C995.511414,635.675476 969.629761,537.327393 943.799927,439.176117 
	C912.540588,439.176117 882.066467,439.176117 851.447327,439.176117 
	C850.942749,440.837189 850.421875,442.367249 850.013123,443.926697 
	C846.526672,457.228271 843.113892,470.549347 839.577637,483.837585 
	C831.748413,513.257263 823.847046,542.657776 816.000305,572.072754 
	C810.136169,594.055542 804.262939,616.036194 798.485840,638.041931 
	C794.537109,653.083252 790.746826,668.166138 786.516235,683.980835 
M617.500000,735.000122 
	C627.250671,735.000122 637.001282,735.000122 646.651978,735.000122 
	C646.651978,715.908508 646.651978,697.657349 646.651978,678.928101 
	C615.054810,678.928101 583.801880,678.928101 552.384033,678.928101 
	C552.384033,656.408386 552.384033,634.373840 552.384033,611.856628 
	C578.350952,611.856628 603.937744,611.856628 629.577515,611.856628 
	C629.577515,593.666504 629.577515,575.964783 629.577515,557.783325 
	C603.572632,557.783325 577.985657,557.783325 552.280396,557.783325 
	C552.280396,536.380310 552.280396,515.463562 552.280396,493.930664 
	C581.949341,493.930664 611.345459,493.930664 640.723816,493.930664 
	C643.482727,475.379669 646.151550,457.434052 648.835388,439.387390 
	C590.778320,439.387390 533.055969,439.387390 475.314392,439.387390 
	C475.314392,538.023254 475.314392,636.270996 475.314392,735.000122 
	C522.584473,735.000122 569.542236,735.000122 617.500000,735.000122 
M434.494507,497.999115 
	C438.660736,497.997345 442.853638,498.261292 446.978607,497.847931 
	C448.399323,497.705536 450.637939,496.026611 450.828735,494.791077 
	C453.058075,480.354736 455.008209,465.874390 456.935699,451.392853 
	C457.464722,447.418396 457.673309,443.401337 458.037201,439.311340 
	C387.317871,439.311340 317.402557,439.311340 247.420258,439.311340 
	C247.420258,458.994263 247.420258,478.362579 247.420258,498.211853 
	C269.089935,498.211853 290.344055,498.211853 312.071289,498.211853 
	C312.071289,577.279419 312.071289,655.862732 312.071289,734.615723 
	C338.256470,734.615723 363.957458,734.615723 390.139587,734.615723 
	C390.139587,655.649475 390.139587,577.066223 390.139587,497.999115 
	C404.911346,497.999115 419.204071,497.999115 434.494507,497.999115 
M763.999512,502.500000 
	C763.999512,481.428558 763.999512,460.357117 763.999512,439.322479 
	C737.610657,439.322479 712.036499,439.322479 686.000671,439.322479 
	C686.000671,441.762146 686.000671,443.894043 686.000671,446.025940 
	C686.000671,524.981934 686.070862,603.938049 685.912964,682.893738 
	C685.892883,692.937012 684.930176,703.002014 683.960876,713.014099 
	C682.540833,727.681396 675.322083,739.012207 662.966675,746.967651 
	C658.185120,750.046326 653.142578,752.719604 648.079712,755.658447 
	C654.901733,773.671814 661.733643,791.710999 668.637634,809.940796 
	C683.559021,805.144348 697.506470,798.324097 711.008362,790.506653 
	C727.815430,780.775696 740.351013,766.945740 749.946899,750.238953 
	C760.604126,731.684204 763.686707,711.172424 763.837219,690.394653 
	C764.288696,628.099304 763.999573,565.798584 763.999512,502.500000 
M1369.000000,651.500000 
	C1369.000000,623.591248 1369.000000,595.682495 1369.000000,567.528564 
	C1367.424194,567.528564 1366.779907,567.455750 1366.156494,567.539429 
	C1355.318359,568.995056 1344.494995,570.567017 1333.642822,571.906494 
	C1326.258301,572.817932 1326.155151,572.696960 1328.015747,579.944641 
	C1330.614380,590.066284 1333.397705,600.140442 1336.029175,610.253845 
	C1345.419922,646.345642 1354.763062,682.449890 1364.189453,718.532410 
	C1364.825073,720.965454 1366.001587,723.257263 1366.926636,725.614685 
	C1367.617676,725.528870 1368.308838,725.443115 1369.000000,725.357300 
	C1369.000000,701.071533 1369.000000,676.785767 1369.000000,651.500000 
M1241.225098,766.839600 
	C1244.422974,765.680908 1247.620850,764.522156 1250.812134,763.365845 
	C1250.569458,762.733643 1250.555908,762.530884 1250.450317,762.453003 
	C1250.054443,762.161072 1249.655762,761.847290 1249.209717,761.652588 
	C1237.537598,756.556580 1231.413940,747.524292 1229.742310,735.014709 
	C1228.777588,727.795532 1227.451904,720.598633 1225.815186,713.500854 
	C1222.619385,699.641052 1225.964111,702.352112 1212.475830,702.004517 
	C1211.477417,701.978760 1210.466309,702.110596 1209.480103,701.999878 
	C1206.077759,701.617859 1204.668091,703.521484 1204.123901,706.504578 
	C1203.082764,712.212463 1202.220947,717.961365 1200.942749,723.615906 
	C1199.087280,731.824097 1197.796387,740.327148 1194.582275,747.999695 
	C1192.570435,752.802673 1189.475098,757.144409 1189.340820,762.555359 
	C1189.178711,769.092285 1189.302490,775.636353 1189.302490,783.085388 
	C1207.012695,777.533020 1223.732422,772.291260 1241.225098,766.839600 
M1313.104736,523.669495 
	C1315.061401,531.026428 1317.132324,538.355713 1318.921143,545.753235 
	C1319.686768,548.918945 1321.095215,550.231323 1324.472656,549.731445 
	C1335.584961,548.086609 1346.715332,546.554077 1357.856567,545.116943 
	C1371.128540,543.405029 1368.614746,545.302551 1369.039673,532.056396 
	C1369.168213,528.045654 1367.479248,526.894897 1363.722290,526.954590 
	C1353.756226,527.112793 1343.782104,527.161682 1333.818481,526.934753 
	C1327.440308,526.789429 1321.377319,525.294678 1316.377563,520.848877 
	C1315.406250,519.985291 1313.981201,519.632202 1312.190430,518.765320 
	C1312.573486,520.737183 1312.788086,521.841675 1313.104736,523.669495 
M604.786377,528.995361 
	C612.937073,528.998840 621.093811,528.811768 629.236633,529.066895 
	C635.613403,529.266663 641.716248,530.694092 646.656921,535.232178 
	C650.077148,538.373596 653.567810,541.438293 656.602783,544.157166 
	C656.602783,536.438538 656.602783,527.897095 656.602783,518.811401 
	C637.512634,527.102783 617.576904,520.534790 598.515015,523.765503 
	C598.381104,528.145447 600.520386,529.266907 604.786377,528.995361 
M645.141296,650.040527 
	C648.821106,650.570557 652.500854,651.100647 656.627319,651.695068 
	C656.627319,642.312988 656.627319,633.630432 656.627319,624.870605 
	C656.086487,625.005981 655.723450,625.003235 655.490906,625.176086 
	C655.097229,625.468750 654.721008,625.828857 654.449646,626.235535 
	C647.728271,636.308838 638.075623,640.726257 626.215820,641.039429 
	C624.116089,641.094910 620.906433,640.226440 621.361755,644.089600 
	C621.719116,647.121277 621.998901,650.374939 626.759583,650.073914 
	C632.554016,649.707581 638.390503,650.005920 645.141296,650.040527 
z"/>
<path fill="#31C48D" opacity="1.000000" stroke="none" 
	d="
M1208.001099,90.995438 
	C1222.417114,128.703079 1236.694946,166.046738 1250.972290,203.390564 
	C1262.284302,232.978317 1273.601807,262.563995 1284.905884,292.154846 
	C1296.269043,321.900635 1307.627197,351.648499 1318.967285,381.403168 
	C1321.090942,386.975403 1323.173218,392.564880 1325.170898,398.183228 
	C1326.367065,401.547699 1328.335083,402.996246 1332.168091,403.098511 
	C1348.441040,403.532684 1364.704956,404.327087 1380.969727,405.043335 
	C1395.069946,405.664246 1409.168823,406.324677 1423.263306,407.063416 
	C1424.846436,407.146362 1426.396851,407.852478 1427.962524,408.269592 
	C1427.902344,408.759674 1427.842163,409.249756 1427.781860,409.739868 
	C1425.894165,409.826172 1424.006470,409.986572 1422.118774,409.987732 
	C1393.953613,410.005188 1365.788086,409.905457 1337.623657,410.055542 
	C1327.887207,410.107422 1319.056519,412.569641 1312.094482,420.297516 
	C1306.233765,426.802948 1304.228882,434.446136 1304.073242,442.695618 
	C1303.815674,456.340240 1304.003174,469.993225 1303.002075,483.878174 
	C1301.702271,479.457489 1300.302734,475.063324 1299.121704,470.611115 
	C1295.677612,457.627502 1292.417847,444.594055 1288.854614,431.643707 
	C1288.076904,428.816650 1286.935669,425.637604 1284.926025,423.688477 
	C1279.483643,418.410004 1278.854126,411.900665 1280.205200,405.414642 
	C1281.736450,398.063385 1279.206665,391.622894 1277.418701,385.003357 
	C1267.767090,349.268677 1257.904053,313.591125 1248.155029,277.882660 
	C1237.240234,237.903885 1226.361938,197.915161 1215.481812,157.926926 
	C1208.988525,134.061386 1202.503418,110.193604 1196.049805,86.317345 
	C1189.611084,62.495888 1183.221069,38.661240 1176.779419,14.840559 
	C1176.574951,14.084342 1176.036987,13.418289 1174.613281,12.697140 
	C1174.078125,17.636930 1173.507812,22.573208 1173.013916,27.517136 
	C1171.399414,43.682114 1169.774536,59.846252 1168.227295,76.017761 
	C1167.090942,87.896271 1166.119751,99.790573 1164.984497,111.669197 
	C1163.801758,124.044403 1162.482056,136.406464 1161.275391,148.779449 
	C1160.149414,160.324875 1159.126221,171.880310 1157.997559,183.425476 
	C1156.771973,195.963791 1155.423706,208.490280 1154.230713,221.031601 
	C1153.398193,229.784546 1152.808838,238.560593 1151.982056,247.314133 
	C1150.844971,259.352478 1149.572266,271.377960 1148.383667,283.411499 
	C1147.242676,294.963654 1146.149902,306.520508 1145.008179,318.072571 
	C1143.753906,330.764740 1142.413452,343.448608 1141.211792,356.145660 
	C1140.070923,368.200714 1139.139160,380.275726 1137.973999,392.328278 
	C1136.475830,407.826569 1134.799438,423.307587 1133.271973,438.803131 
	C1132.279175,448.872650 1132.069580,459.069733 1130.325806,469.001923 
	C1128.209717,481.053650 1124.987793,492.921997 1121.991699,504.806000 
	C1117.369873,523.137451 1112.607056,541.434265 1107.768677,559.709961 
	C1102.081055,581.193848 1096.229492,602.634338 1090.484131,624.103027 
	C1084.654785,645.885925 1078.953003,667.703796 1072.914062,689.428101 
	C1072.394043,691.298340 1070.015625,693.385986 1068.069824,693.993774 
	C1061.108032,696.168152 1053.931030,697.641907 1046.896118,699.598938 
	C1043.378174,700.577515 1041.837036,699.565247 1040.924561,695.982727 
	C1036.059448,676.879211 1031.002686,657.824158 1025.956665,638.767090 
	C1015.423889,598.988281 1004.867737,559.215698 994.293091,519.447937 
	C992.306091,511.975586 992.964294,511.300079 1000.740845,510.956848 
	C1020.646973,510.078308 1040.540039,508.905365 1060.445312,508.004242 
	C1064.402344,507.825165 1064.301880,504.831909 1064.839966,502.452209 
	C1067.651855,490.015625 1070.299438,477.541748 1072.986328,465.076996 
	C1078.679199,438.668335 1084.252319,412.233307 1090.074829,385.853302 
	C1097.399536,352.666840 1105.030273,319.547821 1112.334595,286.356934 
	C1120.351807,249.927094 1128.068481,213.431198 1136.064575,176.996658 
	C1142.671143,146.893692 1149.506104,116.840927 1156.216919,86.760765 
	C1161.088013,64.926895 1165.926514,43.085716 1170.750366,21.241364 
	C1170.917358,20.485260 1170.771606,19.660095 1169.872803,18.587313 
	C1167.112427,25.037613 1164.335693,31.481007 1161.594360,37.939445 
	C1153.302246,57.476032 1144.987793,77.003181 1136.749268,96.562325 
	C1126.127441,121.779137 1115.645020,147.054886 1104.962891,172.245987 
	C1096.087646,193.175735 1086.920044,213.981506 1078.045776,234.911667 
	C1067.234131,260.411316 1056.620728,285.994965 1045.867554,311.519501 
	C1041.038330,322.982452 1036.040894,334.374573 1031.218262,345.840271 
	C1030.530273,347.476044 1030.076538,349.344696 1030.064697,351.109222 
	C1029.972290,364.941132 1029.903809,378.775055 1030.039185,392.606232 
	C1030.280396,417.228821 1030.569458,441.852020 1031.083130,466.469879 
	C1031.185303,471.371338 1029.833862,472.992493 1024.679810,473.159454 
	C1012.261292,473.561798 999.860474,474.691772 987.473694,475.771667 
	C984.083435,476.067230 982.720398,474.880524 981.914856,471.726166 
	C978.793396,459.502472 975.387085,447.351807 972.218872,435.139679 
	C968.138672,419.411865 957.324158,410.242859 941.174194,410.093842 
	C912.011719,409.824677 882.836426,409.600067 853.683350,410.188324 
	C837.944458,410.505890 827.330261,417.329224 822.141663,437.208740 
	C818.413635,451.492004 814.681519,465.774231 810.998962,480.069214 
	C809.330933,486.544342 799.293030,491.016052 793.640076,487.436157 
	C792.531555,486.734131 792.092468,484.296570 792.077637,482.652832 
	C791.954407,468.988007 791.441162,455.292664 792.143555,441.663116 
	C793.003601,424.975647 780.727783,410.322510 761.047424,410.084839 
	C737.052307,409.795105 713.042419,409.664734 689.058289,410.254944 
	C682.852600,410.407623 676.565369,413.116028 670.623047,415.437622 
	C667.955383,416.479858 666.070862,416.873291 663.808289,415.240417 
	C657.998779,411.047791 651.229675,410.104309 644.384949,410.055481 
	C623.720459,409.908112 603.053162,409.884796 582.389587,410.084930 
	C577.726807,410.130096 575.729065,408.778198 574.818420,403.944061 
	C569.143005,373.815948 563.082642,343.760590 557.213013,313.668793 
	C551.786865,285.851074 546.431946,258.019501 541.060608,230.191116 
	C537.418274,211.320587 533.776306,192.449890 530.182068,173.570175 
	C527.484802,159.401627 524.849915,145.221115 522.235229,131.037094 
	C522.032471,129.937332 522.208557,128.767731 522.208557,126.488953 
	C528.750854,127.780739 534.823853,128.955124 540.886475,130.181137 
	C570.292969,136.127899 599.712341,142.012878 629.097107,148.065536 
	C658.315796,154.083969 687.492554,160.305695 716.698853,166.384521 
	C759.054993,175.200287 801.414917,183.997620 843.784729,192.747345 
	C885.518066,201.365616 927.266235,209.912796 969.007019,218.495071 
	C989.958557,222.802887 1010.918762,227.070007 1031.846558,231.490265 
	C1034.677734,232.088226 1036.438110,231.764542 1038.036133,229.095108 
	C1050.221802,208.738281 1062.509888,188.442322 1074.828735,168.165543 
	C1084.478394,152.282104 1094.240356,136.466858 1103.912842,120.597076 
	C1124.810059,86.310211 1145.680054,52.006756 1166.566284,17.713104 
	C1169.037231,13.655993 1171.539429,9.618009 1174.597778,4.642963 
	C1179.324829,10.350915 1183.554932,15.365802 1187.684692,20.462055 
	C1204.171265,40.806522 1220.655029,61.153255 1237.081299,81.546288 
	C1245.397339,91.870529 1253.528320,102.343765 1261.851074,112.662506 
	C1272.875977,126.331413 1284.052124,139.878372 1295.077026,153.547241 
	C1303.400269,163.866409 1311.527954,174.343201 1319.851074,184.662354 
	C1330.876343,198.331696 1342.493652,211.558411 1352.881470,225.692093 
	C1357.835815,232.432968 1363.837158,235.345490 1371.402832,237.406296 
	C1405.791138,246.773331 1440.074585,256.524750 1474.411011,266.083221 
	C1478.809814,267.307770 1480.551270,269.754303 1479.916992,274.439728 
	C1475.826050,304.656586 1471.906250,334.896606 1467.889648,365.123627 
	C1467.016235,371.696594 1465.750366,378.225586 1465.110352,384.818054 
	C1464.789185,388.124542 1463.396240,389.239624 1460.379272,388.979950 
	C1451.949707,388.254456 1443.512817,387.600037 1435.093994,386.765961 
	C1423.219116,385.589417 1411.364624,384.204041 1399.488525,383.040741 
	C1384.798584,381.601837 1370.100098,380.241302 1355.393677,378.984467 
	C1352.324463,378.722137 1351.936768,376.956848 1352.075562,374.574738 
	C1353.388062,352.041748 1354.694214,329.508301 1356.054199,306.978149 
	C1356.183105,304.842926 1356.560059,302.706573 1357.003052,300.609039 
	C1359.404053,289.239624 1352.049805,281.491302 1346.652344,273.137817 
	C1326.934082,242.620621 1307.014526,212.233612 1287.232422,181.757477 
	C1273.868286,161.168945 1260.576782,140.533127 1247.309204,119.882195 
	C1231.533203,95.326683 1215.826904,70.726524 1200.071655,46.157715 
	C1194.165649,36.947845 1188.209595,27.770081 1182.265259,18.584877 
	C1181.937866,18.078928 1181.508057,17.639189 1180.006958,17.685209 
	C1189.292236,42.000652 1198.577393,66.316093 1208.001099,90.995438 
z"/>
<path fill="#C9EFC7" opacity="1.000000" stroke="none" 
	d="
M1609.001099,583.000000 
	C1609.001099,554.542480 1609.001099,526.585022 1609.001099,498.146545 
	C1587.277100,498.146545 1566.023804,498.146545 1544.215088,498.146545 
	C1544.215088,480.941437 1544.215088,464.207336 1544.215088,447.473236 
	C1543.890015,447.455414 1543.564819,447.437592 1543.239746,447.419800 
	C1541.491333,460.341400 1539.738525,473.262451 1537.998169,486.185120 
	C1537.625366,488.954224 1537.283691,491.727692 1536.951904,494.502075 
	C1536.555664,497.816803 1534.328857,498.050415 1531.591431,498.037415 
	C1515.093628,497.959015 1498.594971,497.998871 1482.096680,497.999176 
	C1480.294189,497.999207 1478.491821,497.999207 1476.208984,497.999207 
	C1476.208984,576.990662 1476.208984,655.569031 1476.208984,734.573181 
	C1450.030029,734.573181 1424.330933,734.573181 1398.152832,734.573181 
	C1398.152832,655.943115 1398.152832,577.363647 1398.152832,498.124878 
	C1376.315186,498.124878 1354.941528,498.124878 1333.288086,498.124878 
	C1333.288086,478.216919 1333.288086,458.967743 1333.288086,439.358490 
	C1473.767334,439.358490 1614.143433,439.358490 1755.067261,439.358490 
	C1752.331665,458.962006 1749.626831,478.345001 1746.893311,497.933044 
	C1726.490356,497.933044 1706.685547,497.933044 1686.228760,497.933044 
	C1686.228760,576.920410 1686.228760,655.618835 1686.228760,734.657471 
	C1660.329346,734.657471 1635.080200,734.657471 1609.001099,734.657471 
	C1609.001099,684.314941 1609.001099,633.907471 1609.001099,583.000000 
M1413.345703,472.228638 
	C1414.848022,473.133148 1416.350342,474.037628 1417.857544,474.945129 
	C1421.171875,469.076385 1417.805664,468.264038 1409.338257,469.666962 
	C1410.716187,470.574860 1411.734741,471.245911 1413.345703,472.228638 
z"/>
<path fill="#C9EFC7" opacity="1.000000" stroke="none" 
	d="
M1102.700195,689.609863 
	C1106.364014,675.585205 1109.732910,661.905762 1113.345459,648.290955 
	C1119.099121,626.606140 1125.086792,604.983459 1130.844238,583.299622 
	C1138.114136,555.919434 1145.265503,528.507751 1152.442993,501.103119 
	C1157.339478,482.408295 1162.211914,463.707123 1167.051025,444.997406 
	C1168.084717,441.000732 1169.531006,438.765472 1174.658691,438.828552 
	C1203.474854,439.183105 1232.297607,438.999481 1261.389526,438.999481 
	C1287.320190,537.496582 1313.217896,635.868835 1339.315552,735.000305 
	C1336.970337,735.000305 1335.208130,735.000305 1333.445923,735.000305 
	C1310.449463,735.000305 1287.452271,734.913086 1264.457031,735.080078 
	C1260.279175,735.110413 1258.568359,734.232422 1257.797974,729.595154 
	C1254.900513,712.153992 1251.385986,694.812927 1247.868530,677.481934 
	C1247.595215,676.135803 1245.517456,674.168884 1244.261719,674.156372 
	C1223.447998,673.949219 1202.631592,674.008911 1181.300049,674.008911 
	C1177.437622,694.369934 1173.606445,714.566956 1169.774780,734.765747 
	C1143.329468,734.765747 1117.382568,734.765747 1090.627319,734.765747 
	C1094.662231,719.565186 1098.588379,704.774658 1102.700195,689.609863 
M1194.973022,601.385437 
	C1193.905640,607.080017 1192.838379,612.774658 1191.748291,618.590088 
	C1207.375610,618.590088 1222.072876,618.590088 1236.975098,618.590088 
	C1229.526367,578.846985 1222.159180,539.538452 1214.791992,500.229919 
	C1214.484497,500.215363 1214.177124,500.200806 1213.869751,500.186249 
	C1207.579834,533.629150 1201.290039,567.072021 1194.973022,601.385437 
M1261.788086,636.158569 
	C1259.510376,638.695129 1257.232666,641.231689 1254.882568,643.848694 
	C1255.538696,644.311279 1255.893677,644.701050 1256.330811,644.849426 
	C1268.581055,649.008484 1275.297729,657.668518 1277.447144,670.284668 
	C1279.179443,680.453064 1281.116333,690.590271 1283.217285,700.688293 
	C1283.543701,702.257690 1285.094727,704.609314 1286.314575,704.765747 
	C1290.348267,705.283142 1294.489624,704.960999 1299.341919,704.960999 
	C1298.844727,701.876770 1298.667969,699.595825 1298.097534,697.417969 
	C1288.444702,660.557007 1278.686401,623.723572 1269.123169,586.839478 
	C1267.926147,582.222473 1266.212524,580.074951 1261.089722,582.842712 
	C1262.859985,592.409912 1264.578125,602.042175 1266.438721,611.646851 
	C1268.093140,620.186707 1267.139648,628.205688 1261.788086,636.158569 
z"/>
<path fill="#C9EFC7" opacity="1.000000" stroke="none" 
	d="
M786.700989,683.605652 
	C790.746826,668.166138 794.537109,653.083252 798.485840,638.041931 
	C804.262939,616.036194 810.136169,594.055542 816.000305,572.072754 
	C823.847046,542.657776 831.748413,513.257263 839.577637,483.837585 
	C843.113892,470.549347 846.526672,457.228271 850.013123,443.926697 
	C850.421875,442.367249 850.942749,440.837189 851.447327,439.176117 
	C882.066467,439.176117 912.540588,439.176117 943.799927,439.176117 
	C969.629761,537.327393 995.511414,635.675476 1021.543396,734.594604 
	C994.398682,734.594604 968.025452,734.594604 941.170898,734.594604 
	C937.393921,714.638062 933.594849,694.564941 929.703003,674.001343 
	C923.811462,674.001343 918.012329,674.001282 912.213257,674.001404 
	C897.547424,674.001648 882.881165,674.062134 868.216064,673.955994 
	C864.913513,673.932007 863.457092,674.546631 862.803528,678.435547 
	C859.844727,696.041321 856.372253,713.562744 852.867920,731.071106 
	C852.573792,732.540833 850.680481,734.810791 849.513977,734.820740 
	C824.199341,735.037537 798.882507,734.985840 772.928345,734.985840 
	C777.539001,717.678772 782.027588,700.829773 786.700989,683.605652 
M881.133179,579.744263 
	C878.807373,592.607239 876.481506,605.470154 874.105835,618.608704 
	C889.107422,618.608704 903.931885,618.608704 919.357178,618.608704 
	C911.893250,578.827148 904.520935,539.533691 897.148560,500.240265 
	C896.811279,500.288574 896.473999,500.336884 896.136719,500.385193 
	C891.275818,526.583191 886.414856,552.781250 881.133179,579.744263 
M961.681580,625.746765 
	C952.023376,589.148315 942.365234,552.549805 932.707031,515.951355 
	C932.200012,516.072693 931.693054,516.194092 931.186035,516.315430 
	C931.313354,517.425720 931.373474,518.548523 931.577942,519.644409 
	C937.166992,549.590149 942.832336,579.521912 948.342712,609.482117 
	C950.669678,622.133667 949.155151,633.756592 938.251587,642.444153 
	C937.831421,642.778931 937.670593,643.439209 937.203552,644.282410 
	C952.110474,648.879150 958.536743,659.556885 960.588928,673.967773 
	C962.057373,684.279785 964.376892,694.470642 966.282471,704.535217 
	C967.344910,704.753113 967.825928,704.928894 968.310120,704.938171 
	C970.807861,704.985718 973.306641,705.015259 975.804810,705.005493 
	C982.315063,704.980103 982.487671,704.775269 980.835938,698.491272 
	C974.530945,674.503357 968.206665,650.520447 961.681580,625.746765 
M827.267456,647.798462 
	C827.417847,661.676941 827.568298,675.555420 827.718689,689.433838 
	C828.411377,689.469482 829.104065,689.505066 829.796753,689.540649 
	C831.184814,682.452637 832.551758,675.360413 833.965820,668.277588 
	C836.155945,657.307739 842.448853,649.718018 852.810425,645.489441 
	C853.930054,645.032532 854.994934,644.441406 856.232788,643.840942 
	C843.882568,630.945923 842.037231,624.924377 845.215027,607.895752 
	C849.608032,584.354492 854.081421,560.828308 858.497803,537.291443 
	C858.782288,535.775208 858.874146,534.222839 859.055664,532.687256 
	C858.651733,532.609863 858.247742,532.532471 857.843811,532.455139 
	C847.737244,570.635986 837.630615,608.816833 827.267456,647.798462 
M914.711426,471.199615 
	C917.264832,473.403687 919.818298,475.607727 922.668274,478.067749 
	C922.061035,475.651886 921.731079,473.258575 920.846069,471.091949 
	C919.741943,468.388824 916.675720,468.326569 914.711426,471.199615 
M876.415527,469.163605 
	C875.165833,470.892365 873.916138,472.621155 872.666504,474.349945 
	C873.115662,474.687927 873.564819,475.025909 874.013977,475.363922 
	C875.979187,473.601257 877.944397,471.838593 880.603455,469.453552 
	C878.665955,469.270386 877.871216,469.195282 876.415527,469.163605 
z"/>
<path fill="#C9EFC7" opacity="1.000000" stroke="none" 
	d="
M617.000000,735.000122 
	C569.542236,735.000122 522.584473,735.000122 475.314392,735.000122 
	C475.314392,636.270996 475.314392,538.023254 475.314392,439.387390 
	C533.055969,439.387390 590.778320,439.387390 648.835388,439.387390 
	C646.151550,457.434052 643.482727,475.379669 640.723816,493.930664 
	C611.345459,493.930664 581.949341,493.930664 552.280396,493.930664 
	C552.280396,515.463562 552.280396,536.380310 552.280396,557.783325 
	C577.985657,557.783325 603.572632,557.783325 629.577515,557.783325 
	C629.577515,575.964783 629.577515,593.666504 629.577515,611.856628 
	C603.937744,611.856628 578.350952,611.856628 552.384033,611.856628 
	C552.384033,634.373840 552.384033,656.408386 552.384033,678.928101 
	C583.801880,678.928101 615.054810,678.928101 646.651978,678.928101 
	C646.651978,697.657349 646.651978,715.908508 646.651978,735.000122 
	C637.001282,735.000122 627.250671,735.000122 617.000000,735.000122 
z"/>
<path fill="#31C48D" opacity="1.000000" stroke="none" 
	d="
M740.942871,1235.021118 
	C742.396545,1233.357056 744.074646,1231.839355 745.270081,1230.006836 
	C761.223328,1205.550293 777.049377,1181.010742 793.032837,1156.574097 
	C803.292725,1140.888184 813.827820,1125.382324 824.117615,1109.715698 
	C840.691711,1084.480835 857.167358,1059.181396 873.680847,1033.906738 
	C889.830139,1009.189453 905.968689,984.465149 922.123718,959.751709 
	C932.646362,943.654480 943.267822,927.620850 953.632935,911.423035 
	C955.051147,909.206787 955.845886,906.214172 955.893494,903.562378 
	C956.123901,890.736450 955.907837,877.903442 956.020630,865.074402 
	C956.301453,833.125977 956.740784,801.178772 956.933533,769.229919 
	C956.959656,764.901184 958.735840,763.920837 962.627686,763.948608 
	C980.622131,764.077209 998.619019,764.107300 1016.612976,763.943420 
	C1023.790405,763.878052 1030.657471,762.391846 1036.947266,758.450012 
	C1043.099243,754.594543 1046.756958,749.030518 1048.866943,742.404541 
	C1051.261353,734.885010 1053.337402,733.375610 1061.679321,734.548035 
	C1062.641968,743.301331 1066.077271,750.908936 1073.084839,756.737061 
	C1079.588135,762.145874 1087.274780,763.870728 1095.366943,763.944092 
	C1113.860718,764.111816 1132.358765,764.140686 1150.851074,763.910156 
	C1155.685303,763.849915 1157.377319,765.425049 1157.047852,770.208923 
	C1155.943604,786.243958 1155.044922,802.293274 1154.107788,818.339539 
	C1153.682617,825.622437 1153.538086,832.928711 1152.841431,840.183594 
	C1152.677734,841.887512 1151.136108,844.355286 1149.651001,844.901306 
	C1128.186646,852.793152 1106.606445,860.368530 1085.089111,868.117554 
	C1061.552856,876.593689 1037.930908,884.859863 1014.648743,893.988770 
	C1010.410522,895.650452 1007.331360,900.783752 1004.216431,904.710510 
	C984.759766,929.238281 965.392151,953.837280 946.103333,978.497437 
	C934.788147,992.963440 923.781555,1007.670959 912.444519,1022.119507 
	C892.597656,1047.413452 872.583801,1072.576294 852.676331,1097.822754 
	C832.897888,1122.905518 813.117920,1147.987549 793.427490,1173.139282 
	C780.871155,1189.178345 768.523926,1205.380737 755.984009,1221.432617 
	C751.508423,1227.161621 746.741638,1232.663086 741.684326,1238.281494 
	C741.152893,1238.165405 741.044861,1238.036377 740.969727,1237.535889 
	C741.008118,1236.424683 741.013611,1235.685181 741.000244,1234.964722 
	C740.981384,1234.983765 740.942871,1235.021118 740.942871,1235.021118 
z"/>
<path fill="#C9EFC7" opacity="1.000000" stroke="none" 
	d="
M433.995636,497.999115 
	C419.204071,497.999115 404.911346,497.999115 390.139587,497.999115 
	C390.139587,577.066223 390.139587,655.649475 390.139587,734.615723 
	C363.957458,734.615723 338.256470,734.615723 312.071289,734.615723 
	C312.071289,655.862732 312.071289,577.279419 312.071289,498.211853 
	C290.344055,498.211853 269.089935,498.211853 247.420258,498.211853 
	C247.420258,478.362579 247.420258,458.994263 247.420258,439.311340 
	C317.402557,439.311340 387.317871,439.311340 458.037201,439.311340 
	C457.673309,443.401337 457.464722,447.418396 456.935699,451.392853 
	C455.008209,465.874390 453.058075,480.354736 450.828735,494.791077 
	C450.637939,496.026611 448.399323,497.705536 446.978607,497.847931 
	C442.853638,498.261292 438.660736,497.997345 433.995636,497.999115 
z"/>
<path fill="#C9EFC7" opacity="1.000000" stroke="none" 
	d="
M763.999512,503.000000 
	C763.999573,565.798584 764.288696,628.099304 763.837219,690.394653 
	C763.686707,711.172424 760.604126,731.684204 749.946899,750.238953 
	C740.351013,766.945740 727.815430,780.775696 711.008362,790.506653 
	C697.506470,798.324097 683.559021,805.144348 668.637634,809.940796 
	C661.733643,791.710999 654.901733,773.671814 648.079712,755.658447 
	C653.142578,752.719604 658.185120,750.046326 662.966675,746.967651 
	C675.322083,739.012207 682.540833,727.681396 683.960876,713.014099 
	C684.930176,703.002014 685.892883,692.937012 685.912964,682.893738 
	C686.070862,603.938049 686.000671,524.981934 686.000671,446.025940 
	C686.000671,443.894043 686.000671,441.762146 686.000671,439.322479 
	C712.036499,439.322479 737.610657,439.322479 763.999512,439.322479 
	C763.999512,460.357117 763.999512,481.428558 763.999512,503.000000 
M725.697510,492.070099 
	C733.432373,491.768097 733.432617,491.768097 733.462097,484.247681 
	C733.465332,483.418671 733.481934,482.589172 733.460693,481.760712 
	C733.083252,467.026123 736.286072,469.406464 719.871521,469.171967 
	C717.154236,469.133148 715.974731,470.185883 716.042358,472.981689 
	C716.162598,477.952759 716.383118,482.954803 715.976990,487.895844 
	C715.570862,492.836914 718.053833,493.507080 721.924622,492.878723 
	C722.897644,492.720734 723.843506,492.395111 725.697510,492.070099 
z"/>
<path fill="#31C48D" opacity="1.000000" stroke="none" 
	d="
M741.417114,1238.492920 
	C740.453674,1240.200439 739.334045,1241.709473 738.214417,1243.218628 
	C737.768799,1243.145752 737.323181,1243.072876 736.877625,1243.000000 
	C735.947632,1238.449219 734.990051,1233.903687 734.092285,1229.346558 
	C729.446533,1205.763794 724.744385,1182.192017 720.196716,1158.590332 
	C713.075745,1121.633423 706.113586,1084.645996 698.987854,1047.690063 
	C693.434692,1018.889099 687.693909,990.124451 682.110352,961.329346 
	C674.757263,923.408813 667.475281,885.474365 660.172974,847.544006 
	C660.048340,846.896423 660.061646,846.223145 659.996216,845.563293 
	C659.166992,837.199890 659.180725,838.350769 667.350647,838.248901 
	C674.375183,838.161438 681.382874,835.123962 688.354492,833.230286 
	C690.881409,832.543884 693.281860,831.391968 696.836792,830.033203 
	C710.378967,966.053162 723.857422,1101.433960 737.335938,1236.814819 
	C737.601990,1236.855225 737.868042,1236.895630 738.134094,1236.936035 
	C739.667664,1230.059082 741.269226,1223.196533 742.722839,1216.302734 
	C748.603271,1188.414673 754.399170,1160.508667 760.300049,1132.625000 
	C767.333801,1099.387939 774.449524,1066.168457 781.517639,1032.938721 
	C787.173645,1006.348206 792.805237,979.752380 798.459106,953.161377 
	C805.524719,919.930969 812.597229,886.702148 819.676025,853.474609 
	C824.614624,830.293152 829.728210,807.147034 834.375916,783.907593 
	C835.260864,779.482605 834.595825,774.669800 834.161011,770.081970 
	C833.775635,766.016174 834.490845,764.119507 839.240906,763.859619 
	C847.121887,763.428467 855.365295,763.268311 862.711060,760.787781 
	C876.225403,756.224060 880.079529,744.252563 882.038147,731.378174 
	C883.334106,722.859558 885.206299,714.428345 886.839417,705.961609 
	C887.027039,704.988831 887.264771,703.229675 887.599609,703.200134 
	C892.983337,702.725769 898.405823,702.133301 903.770691,702.434631 
	C904.952148,702.501099 906.502441,705.800049 906.928162,707.812378 
	C908.702881,716.200745 910.113098,724.666199 911.718750,733.440796 
	C905.525513,735.050293 899.834412,736.232544 894.379333,738.103027 
	C892.388916,738.785461 890.006287,740.810730 889.416870,742.721313 
	C879.636841,774.424133 870.117615,806.207458 860.532593,837.970520 
	C851.047546,869.402405 841.514343,900.819824 832.075684,932.265747 
	C822.921936,962.762573 813.921021,993.305359 804.739746,1023.793884 
	C798.237976,1045.384399 791.501282,1066.904053 784.953491,1088.480835 
	C777.247742,1113.873291 769.634338,1139.293701 761.977783,1164.701172 
	C754.992615,1187.880493 748.003479,1211.058716 740.979492,1234.629272 
	C740.942871,1235.021118 740.981384,1234.983765 740.779053,1235.156494 
	C740.696838,1236.188599 740.816833,1237.047974 740.936829,1237.907471 
	C741.044861,1238.036377 741.152893,1238.165405 741.417114,1238.492920 
z"/>
<path fill="#31C48D" opacity="1.000000" stroke="none" 
	d="
M1369.000000,652.000000 
	C1369.000000,676.785767 1369.000000,701.071533 1369.000000,725.357300 
	C1368.308838,725.443115 1367.617676,725.528870 1366.926636,725.614685 
	C1366.001587,723.257263 1364.825073,720.965454 1364.189453,718.532410 
	C1354.763062,682.449890 1345.419922,646.345642 1336.029175,610.253845 
	C1333.397705,600.140442 1330.614380,590.066284 1328.015747,579.944641 
	C1326.155151,572.696960 1326.258301,572.817932 1333.642822,571.906494 
	C1344.494995,570.567017 1355.318359,568.995056 1366.156494,567.539429 
	C1366.779907,567.455750 1367.424194,567.528564 1369.000000,567.528564 
	C1369.000000,595.682495 1369.000000,623.591248 1369.000000,652.000000 
z"/>
<path fill="#31C48D" opacity="1.000000" stroke="none" 
	d="
M1240.838623,766.944519 
	C1223.732422,772.291260 1207.012695,777.533020 1189.302490,783.085388 
	C1189.302490,775.636353 1189.178711,769.092285 1189.340820,762.555359 
	C1189.475098,757.144409 1192.570435,752.802673 1194.582275,747.999695 
	C1197.796387,740.327148 1199.087280,731.824097 1200.942749,723.615906 
	C1202.220947,717.961365 1203.082764,712.212463 1204.123901,706.504578 
	C1204.668091,703.521484 1206.077759,701.617859 1209.480103,701.999878 
	C1210.466309,702.110596 1211.477417,701.978760 1212.475830,702.004517 
	C1225.964111,702.352112 1222.619385,699.641052 1225.815186,713.500854 
	C1227.451904,720.598633 1228.777588,727.795532 1229.742310,735.014709 
	C1231.413940,747.524292 1237.537598,756.556580 1249.209717,761.652588 
	C1249.655762,761.847290 1250.054443,762.161072 1250.450317,762.453003 
	C1250.555908,762.530884 1250.569458,762.733643 1250.812134,763.365845 
	C1247.620850,764.522156 1244.422974,765.680908 1240.838623,766.944519 
z"/>
<path fill="#31C48D" opacity="1.000000" stroke="none" 
	d="
M1313.053711,523.307800 
	C1312.788086,521.841675 1312.573486,520.737183 1312.190430,518.765320 
	C1313.981201,519.632202 1315.406250,519.985291 1316.377563,520.848877 
	C1321.377319,525.294678 1327.440308,526.789429 1333.818481,526.934753 
	C1343.782104,527.161682 1353.756226,527.112793 1363.722290,526.954590 
	C1367.479248,526.894897 1369.168213,528.045654 1369.039673,532.056396 
	C1368.614746,545.302551 1371.128540,543.405029 1357.856567,545.116943 
	C1346.715332,546.554077 1335.584961,548.086609 1324.472656,549.731445 
	C1321.095215,550.231323 1319.686768,548.918945 1318.921143,545.753235 
	C1317.132324,538.355713 1315.061401,531.026428 1313.053711,523.307800 
z"/>
<path fill="#31C48D" opacity="1.000000" stroke="none" 
	d="
M604.329712,528.992065 
	C600.520386,529.266907 598.381104,528.145447 598.515015,523.765503 
	C617.576904,520.534790 637.512634,527.102783 656.602783,518.811401 
	C656.602783,527.897095 656.602783,536.438538 656.602783,544.157166 
	C653.567810,541.438293 650.077148,538.373596 646.656921,535.232178 
	C641.716248,530.694092 635.613403,529.266663 629.236633,529.066895 
	C621.093811,528.811768 612.937073,528.998840 604.329712,528.992065 
z"/>
<path fill="#31C48D" opacity="1.000000" stroke="none" 
	d="
M644.675049,650.028625 
	C638.390503,650.005920 632.554016,649.707581 626.759583,650.073914 
	C621.998901,650.374939 621.719116,647.121277 621.361755,644.089600 
	C620.906433,640.226440 624.116089,641.094910 626.215820,641.039429 
	C638.075623,640.726257 647.728271,636.308838 654.449646,626.235535 
	C654.721008,625.828857 655.097229,625.468750 655.490906,625.176086 
	C655.723450,625.003235 656.086487,625.005981 656.627319,624.870605 
	C656.627319,633.630432 656.627319,642.312988 656.627319,651.695068 
	C652.500854,651.100647 648.821106,650.570557 644.675049,650.028625 
z"/>
<path fill="#54CE9A" opacity="1.000000" stroke="none" 
	d="
M1413.049438,472.072815 
	C1411.734741,471.245911 1410.716187,470.574860 1409.338257,469.666962 
	C1417.805664,468.264038 1421.171875,469.076385 1417.857544,474.945129 
	C1416.350342,474.037628 1414.848022,473.133148 1413.049438,472.072815 
z"/>
<path fill="#4C6971" opacity="1.000000" stroke="none" 
	d="
M1194.986572,600.950195 
	C1201.290039,567.072021 1207.579834,533.629150 1213.869751,500.186249 
	C1214.177124,500.200806 1214.484497,500.215363 1214.791992,500.229919 
	C1222.159180,539.538452 1229.526367,578.846985 1236.975098,618.590088 
	C1222.072876,618.590088 1207.375610,618.590088 1191.748291,618.590088 
	C1192.838379,612.774658 1193.905640,607.080017 1194.986572,600.950195 
z"/>
<path fill="#44C994" opacity="1.000000" stroke="none" 
	d="
M1261.986572,635.849976 
	C1267.139648,628.205688 1268.093140,620.186707 1266.438721,611.646851 
	C1264.578125,602.042175 1262.859985,592.409912 1261.089722,582.842712 
	C1266.212524,580.074951 1267.926147,582.222473 1269.123169,586.839478 
	C1278.686401,623.723572 1288.444702,660.557007 1298.097534,697.417969 
	C1298.667969,699.595825 1298.844727,701.876770 1299.341919,704.960999 
	C1294.489624,704.960999 1290.348267,705.283142 1286.314575,704.765747 
	C1285.094727,704.609314 1283.543701,702.257690 1283.217285,700.688293 
	C1281.116333,690.590271 1279.179443,680.453064 1277.447144,670.284668 
	C1275.297729,657.668518 1268.581055,649.008484 1256.330811,644.849426 
	C1255.893677,644.701050 1255.538696,644.311279 1254.882568,643.848694 
	C1257.232666,641.231689 1259.510376,638.695129 1261.986572,635.849976 
z"/>
<path fill="#4C6971" opacity="1.000000" stroke="none" 
	d="
M881.343567,579.361755 
	C886.414856,552.781250 891.275818,526.583191 896.136719,500.385193 
	C896.473999,500.336884 896.811279,500.288574 897.148560,500.240265 
	C904.520935,539.533691 911.893250,578.827148 919.357178,618.608704 
	C903.931885,618.608704 889.107422,618.608704 874.105835,618.608704 
	C876.481506,605.470154 878.807373,592.607239 881.343567,579.361755 
z"/>
<path fill="#44C994" opacity="1.000000" stroke="none" 
	d="
M961.785645,626.141235 
	C968.206665,650.520447 974.530945,674.503357 980.835938,698.491272 
	C982.487671,704.775269 982.315063,704.980103 975.804810,705.005493 
	C973.306641,705.015259 970.807861,704.985718 968.310120,704.938171 
	C967.825928,704.928894 967.344910,704.753113 966.282471,704.535217 
	C964.376892,694.470642 962.057373,684.279785 960.588928,673.967773 
	C958.536743,659.556885 952.110474,648.879150 937.203552,644.282410 
	C937.670593,643.439209 937.831421,642.778931 938.251587,642.444153 
	C949.155151,633.756592 950.669678,622.133667 948.342712,609.482117 
	C942.832336,579.521912 937.166992,549.590149 931.577942,519.644409 
	C931.373474,518.548523 931.313354,517.425720 931.186035,516.315430 
	C931.693054,516.194092 932.200012,516.072693 932.707031,515.951355 
	C942.365234,552.549805 952.023376,589.148315 961.785645,626.141235 
z"/>
<path fill="#45C995" opacity="1.000000" stroke="none" 
	d="
M827.395752,647.398071 
	C837.630615,608.816833 847.737244,570.635986 857.843811,532.455139 
	C858.247742,532.532471 858.651733,532.609863 859.055664,532.687256 
	C858.874146,534.222839 858.782288,535.775208 858.497803,537.291443 
	C854.081421,560.828308 849.608032,584.354492 845.215027,607.895752 
	C842.037231,624.924377 843.882568,630.945923 856.232788,643.840942 
	C854.994934,644.441406 853.930054,645.032532 852.810425,645.489441 
	C842.448853,649.718018 836.155945,657.307739 833.965820,668.277588 
	C832.551758,675.360413 831.184814,682.452637 829.796753,689.540649 
	C829.104065,689.505066 828.411377,689.469482 827.718689,689.433838 
	C827.568298,675.555420 827.417847,661.676941 827.395752,647.398071 
z"/>
<path fill="#53CE9A" opacity="1.000000" stroke="none" 
	d="
M914.496338,470.968018 
	C916.675720,468.326569 919.741943,468.388824 920.846069,471.091949 
	C921.731079,473.258575 922.061035,475.651886 922.668274,478.067749 
	C919.818298,475.607727 917.264832,473.403687 914.496338,470.968018 
z"/>
<path fill="#55CE9B" opacity="1.000000" stroke="none" 
	d="
M876.746033,469.141876 
	C877.871216,469.195282 878.665955,469.270386 880.603455,469.453552 
	C877.944397,471.838593 875.979187,473.601257 874.013977,475.363922 
	C873.564819,475.025909 873.115662,474.687927 872.666504,474.349945 
	C873.916138,472.621155 875.165833,470.892365 876.746033,469.141876 
z"/>
<path fill="#4C6971" opacity="1.000000" stroke="none" 
	d="
M740.969727,1237.535889 
	C740.816833,1237.047974 740.696838,1236.188599 740.797974,1235.137451 
	C741.013611,1235.685181 741.008118,1236.424683 740.969727,1237.535889 
z"/>
<path fill="#42C893" opacity="1.000000" stroke="none" 
	d="
M725.249634,492.108337 
	C723.843506,492.395111 722.897644,492.720734 721.924622,492.878723 
	C718.053833,493.507080 715.570862,492.836914 715.976990,487.895844 
	C716.383118,482.954803 716.162598,477.952759 716.042358,472.981689 
	C715.974731,470.185883 717.154236,469.133148 719.871521,469.171967 
	C736.286072,469.406464 733.083252,467.026123 733.460693,481.760712 
	C733.481934,482.589172 733.465332,483.418671 733.462097,484.247681 
	C733.432617,491.768097 733.432373,491.768097 725.249634,492.108337 
z"/>
</svg>